<?xml version="1.0" encoding="UTF-8" standalone="no"?>
<!DOCTYPE svg PUBLIC "-//W3C//DTD SVG 1.1//EN" "http://www.w3.org/Graphics/SVG/1.1/DTD/svg11.dtd">
<svg width="100%" height="100%" viewBox="0 0 128 128" version="1.1" xmlns="http://www.w3.org/2000/svg" xmlns:xlink="http://www.w3.org/1999/xlink" xml:space="preserve" xmlns:serif="http://www.serif.com/" style="fill-rule:evenodd;clip-rule:evenodd;stroke-linejoin:round;stroke-miterlimit:2;">
    <g id="background" transform="matrix(-0.826247,0,0,0.637133,291.858,-1028)">
        <rect x="198.333" y="1613.47" width="154.9" height="200.9" style="fill:rgb(218,84,45);"/>
    </g>
    <g transform="matrix(0.45444,0,0,0.45444,-120.206,-15.4648)">
        <path d="M325.5,159.7L319.4,159.7L319.4,134.2C319.4,123.7 328.6,115.2 340,115.2L340,121.3C332,121.3 325.5,127.1 325.5,134.2L325.5,159.7Z" style="fill:white;fill-rule:nonzero;"/>
    </g>
    <g transform="matrix(0.45444,0,0,0.45444,-120.206,-15.4648)">
        <path d="M340,252.4C328.7,252.4 319.4,243.9 319.4,233.4L319.4,211.9L325.5,211.9L325.5,233.4C325.5,240.5 332,246.3 340,246.3L340,252.4Z" style="fill:white;fill-rule:nonzero;"/>
    </g>
    <g transform="matrix(0.45444,0,0,0.45444,-120.206,-15.4648)">
        <rect x="371" y="246.3" width="76.8" height="6.1" style="fill:white;"/>
    </g>
    <g transform="matrix(0.45444,0,0,0.45444,-120.206,-15.4648)">
        <path d="M315.3,205.7C305.1,205.7 296.8,196.6 296.8,185.3C296.8,174 305.1,164.9 315.3,164.9" style="fill:white;fill-rule:nonzero;"/>
    </g>
    <g transform="matrix(0.45444,0,0,0.45444,-120.206,-15.4648)">
        <path d="M502.3,205.7C512.5,205.7 520.8,196.6 520.8,185.3C520.8,174 512.5,164.9 502.3,164.9" style="fill:white;fill-rule:nonzero;"/>
    </g>
    <g transform="matrix(0.45444,0,0,0.45444,-120.206,-15.4648)">
        <path d="M499.5,159.7L493.4,159.7L493.4,134.2C493.4,127.1 486.9,121.3 478.9,121.3L478.9,115.2C490.2,115.2 499.5,123.7 499.5,134.2L499.5,159.7Z" style="fill:white;fill-rule:nonzero;"/>
    </g>
    <g transform="matrix(0.45444,0,0,0.45444,-120.206,-15.4648)">
        <path d="M479,252.4L479,246.3C487,246.3 493.5,240.5 493.5,233.4L493.5,211.9L499.6,211.9L499.6,233.4C499.5,243.9 490.3,252.4 479,252.4Z" style="fill:white;fill-rule:nonzero;"/>
    </g>
    <g transform="matrix(0.45444,0,0,0.45444,-120.206,-15.4648)">
        <path d="M339.3,232L479.2,232L479.2,137.5L339.3,137.5L339.3,232ZM369.4,197.5C362.7,197.5 357.2,192.1 357.2,185.4C357.2,178.7 362.6,173.2 369.4,173.2C376.2,173.2 381.6,178.6 381.6,185.4C381.6,192.1 376.1,197.5 369.4,197.5ZM449.8,197.5C443.1,197.5 437.6,192.1 437.6,185.4C437.6,178.7 443,173.2 449.8,173.2C456.5,173.2 462,178.6 462,185.4C462,192.1 456.5,197.5 449.8,197.5Z" style="fill:white;fill-rule:nonzero;"/>
    </g>
    <g transform="matrix(0.45444,0,0,0.45444,-120.206,-15.4648)">
        <path d="M389.8,137.5L408.5,159.7L425.7,137.5L408.5,88.4L389.8,137.5Z" style="fill:white;fill-rule:nonzero;"/>
    </g>
    <g transform="matrix(0.45444,0,0,0.45444,-120.206,-15.4648)">
        <path d="M344.1,137.4L343.6,137.4C342.4,137.1 341.6,135.9 341.8,134.7L347.8,106.4C348,105.5 348.7,104.8 349.6,104.6L409.6,94.3C410.8,94.1 412,94.9 412.2,96.2C412.4,97.4 411.6,98.6 410.3,98.8L352,108.8L346.4,135.6C346.1,136.6 345.1,137.4 344.1,137.4Z" style="fill:white;fill-rule:nonzero;"/>
    </g>
    <g transform="matrix(0.45444,0,0,0.45444,-120.206,-15.4648)">
        <path d="M475.4,137.4C474.3,137.4 473.4,136.7 473.2,135.6L467.6,108.8L409,98.7C407.8,98.5 406.9,97.3 407.1,96.1C407.3,94.9 408.5,94 409.7,94.2L469.7,104.5C470.6,104.7 471.4,105.4 471.6,106.3L477.6,134.6C477.9,135.8 477.1,137 475.8,137.3C475.7,137.4 475.5,137.4 475.4,137.4Z" style="fill:white;fill-rule:nonzero;"/>
    </g>
</svg>
